<svg width="14" height="14" viewBox="0 0 14 14" fill="none" xmlns="http://www.w3.org/2000/svg">
<path d="M2.47698 0.650879C1.94035 0.650879 1.4257 0.851558 1.04624 1.20877C0.666789 1.56598 0.453613 2.05047 0.453613 2.55564V4.4604C0.453613 4.81106 0.755578 5.09532 1.12807 5.09532C1.50056 5.09532 1.80253 4.81106 1.80253 4.4604V2.55564C1.80253 2.38725 1.87359 2.22575 2.00007 2.10668C2.12656 1.98761 2.29811 1.92072 2.47698 1.92072H4.50035C4.87285 1.92072 5.17481 1.63646 5.17481 1.2858C5.17481 0.935143 4.87285 0.650879 4.50035 0.650879H2.47698Z" fill="#2D3648"/>
<path d="M9.89601 0.650879C9.52352 0.650879 9.22155 0.935143 9.22155 1.2858C9.22155 1.63646 9.52352 1.92072 9.89601 1.92072H11.9194C12.0983 1.92072 12.2698 1.98761 12.3963 2.10668C12.5228 2.22575 12.5938 2.38725 12.5938 2.55564V4.4604C12.5938 4.81106 12.8958 5.09532 13.2683 5.09532C13.6408 5.09532 13.9428 4.81106 13.9428 4.4604V2.55564C13.9428 2.05047 13.7296 1.56598 13.3501 1.20877C12.9707 0.851559 12.456 0.650879 11.9194 0.650879H9.89601Z" fill="#2D3648"/>
<path d="M1.80253 9.53977C1.80253 9.18911 1.50056 8.90485 1.12807 8.90485C0.755578 8.90485 0.453613 9.18911 0.453613 9.53977V11.4445C0.453613 11.9497 0.666789 12.4342 1.04624 12.7914C1.4257 13.1486 1.94035 13.3493 2.47698 13.3493H4.50035C4.87285 13.3493 5.17481 13.065 5.17481 12.7144C5.17481 12.3637 4.87285 12.0795 4.50035 12.0795H2.47698C2.29811 12.0795 2.12656 12.0126 2.00007 11.8935C1.87359 11.7744 1.80253 11.6129 1.80253 11.4445V9.53977Z" fill="#2D3648"/>
<path d="M13.9428 9.53977C13.9428 9.18911 13.6408 8.90485 13.2683 8.90485C12.8958 8.90485 12.5938 9.18911 12.5938 9.53977V11.4445C12.5938 11.6129 12.5228 11.7744 12.3963 11.8935C12.2698 12.0126 12.0983 12.0795 11.9194 12.0795H9.89601C9.52352 12.0795 9.22155 12.3637 9.22155 12.7144C9.22155 13.065 9.52352 13.3493 9.89601 13.3493H11.9194C12.456 13.3493 12.9707 13.1486 13.3501 12.7914C13.7296 12.4342 13.9428 11.9497 13.9428 11.4445V9.53977Z" fill="#2D3648"/>
</svg>
