<svg width="16" height="15" viewBox="0 0 16 15" fill="none" xmlns="http://www.w3.org/2000/svg">
<path id="Vector" d="M7.57568 8.37971C9.90479 8.37971 11.7944 6.503 11.7944 4.18985C11.7944 1.87671 9.90479 0 7.57568 0C5.24658 0 3.35693 1.87671 3.35693 4.18985C3.35693 6.503 5.24658 8.37971 7.57568 8.37971ZM11.3257 9.31079H9.71143C9.06104 9.60757 8.3374 9.77633 7.57568 9.77633C6.81396 9.77633 6.09326 9.60757 5.43994 9.31079H3.82568C1.75439 9.31079 0.0756836 10.978 0.0756836 13.0351V13.5006C0.0756836 14.2717 0.705566 14.8973 1.48193 14.8973H13.6694C14.4458 14.8973 15.0757 14.2717 15.0757 13.5006V13.0351C15.0757 10.978 13.397 9.31079 11.3257 9.31079Z" fill="#8B9093"/>
</svg>
